<svg id="Layer_1" data-name="Layer 1" xmlns="http://www.w3.org/2000/svg" viewBox="0 0 256 256"><defs><style>.cls-1,.cls-2{fill:none;stroke-linecap:round;stroke-linejoin:round;stroke-width:10px;}.cls-1{stroke:#00a99d;}.cls-2{stroke:#112141;}</style></defs><rect class="cls-1" x="22.73" y="69.11" width="210.53" height="31.5"/><path class="cls-2" d="M233.27,57.46V161.87a13.38,13.38,0,0,1-13.38,13.37H208.66a36.67,36.67,0,1,0-73.34,0H36.11a13.38,13.38,0,0,1-13.38-13.37V57.46A13.38,13.38,0,0,1,36.11,44.09H219.89A13.38,13.38,0,0,1,233.27,57.46Z"/><circle class="cls-2" cx="171.99" cy="175.24" r="36.67"/><line class="cls-2" x1="40.57" y1="138.57" x2="63.29" y2="138.57"/><line class="cls-2" x1="86.61" y1="138.57" x2="109.33" y2="138.57"/><polyline class="cls-1" points="154.2 175.12 169.04 192.88 189.79 164.66"/></svg>