<svg id="Layer_1" data-name="Layer 1" xmlns="http://www.w3.org/2000/svg" viewBox="0 0 256 256"><defs><style>.cls-1,.cls-2{fill:none;stroke-linecap:round;stroke-linejoin:round;stroke-width:10px;}.cls-1{stroke:#112141;}.cls-2{stroke:#00a99d;}</style></defs><path class="cls-1" d="M128,228.94C65.4,205.16,39.59,150.61,44.92,70c28.69-3,51-15.45,67.88-35.68a19.54,19.54,0,0,1,30.4,0C160.14,54.55,182.39,67,211.08,70,216.4,150.61,190.59,205.16,128,228.94Z"/><path class="cls-1" d="M128,207.32c-22.56-10.07-38.7-25-49.19-45.63C68.8,142.08,63.93,117,64.26,87c25.29-6,46.67-19.32,63.74-39.64C145.07,67.64,166.45,80.93,191.74,87c.33,30-4.54,55.12-14.55,74.73C166.7,182.27,150.57,197.25,128,207.32Z"/><polygon class="cls-2" points="129.76 93.59 141.26 113.77 164 118.46 148.36 135.63 150.92 158.71 129.76 149.14 108.61 158.71 111.17 135.63 95.53 118.46 118.27 113.77 129.76 93.59"/></svg>